<svg width="29" height="29" viewBox="0 0 29 29" fill="none" xmlns="http://www.w3.org/2000/svg">
<path fill-rule="evenodd" clip-rule="evenodd" d="M4.83301 8.97626V20.0239C4.83301 20.7564 5.12399 21.4589 5.64195 21.9768C6.15991 22.4948 6.86241 22.7858 7.59491 22.7858H21.4044C22.1369 22.7858 22.8394 22.4948 23.3574 21.9768C23.8754 21.4589 24.1663 20.7564 24.1663 20.0239V8.97626C24.1663 8.24376 23.8754 7.54126 23.3574 7.0233C22.8394 6.50534 22.1369 6.21436 21.4044 6.21436H7.59491C6.86241 6.21436 6.15991 6.50534 5.64195 7.0233C5.12399 7.54126 4.83301 8.24376 4.83301 8.97626Z" stroke="white" stroke-linecap="round" stroke-linejoin="round"/>
<path d="M7.59473 10.3572L14.4995 14.5L21.4043 10.3572" stroke="white" stroke-linecap="round" stroke-linejoin="round"/>
</svg>
