<svg width="24" height="25" viewBox="0 0 24 25" fill="none" xmlns="http://www.w3.org/2000/svg">
<g clip-path="url(#clip0_20_358)">
<path d="M16.5 2C16.8978 2 17.2794 2.15804 17.5607 2.43934C17.842 2.72064 18 3.10218 18 3.5V21.5C18 21.8978 17.842 22.2794 17.5607 22.5607C17.2794 22.842 16.8978 23 16.5 23H7.5C7.10218 23 6.72064 22.842 6.43934 22.5607C6.15804 22.2794 6 21.8978 6 21.5V3.5C6 3.10218 6.15804 2.72064 6.43934 2.43934C6.72064 2.15804 7.10218 2 7.5 2H16.5ZM7.5 0.5C6.70435 0.5 5.94129 0.816071 5.37868 1.37868C4.81607 1.94129 4.5 2.70435 4.5 3.5V21.5C4.5 22.2956 4.81607 23.0587 5.37868 23.6213C5.94129 24.1839 6.70435 24.5 7.5 24.5H16.5C17.2956 24.5 18.0587 24.1839 18.6213 23.6213C19.1839 23.0587 19.5 22.2956 19.5 21.5V3.5C19.5 2.70435 19.1839 1.94129 18.6213 1.37868C18.0587 0.816071 17.2956 0.5 16.5 0.5L7.5 0.5Z" fill="white"/>
<path d="M12 21.5C12.3978 21.5 12.7794 21.342 13.0607 21.0607C13.342 20.7794 13.5 20.3978 13.5 20C13.5 19.6022 13.342 19.2206 13.0607 18.9393C12.7794 18.658 12.3978 18.5 12 18.5C11.6022 18.5 11.2206 18.658 10.9393 18.9393C10.658 19.2206 10.5 19.6022 10.5 20C10.5 20.3978 10.658 20.7794 10.9393 21.0607C11.2206 21.342 11.6022 21.5 12 21.5Z" fill="white"/>
</g>
<defs>
<clipPath id="clip0_20_358">
<rect width="24" height="24" fill="white" transform="translate(0 0.5)"/>
</clipPath>
</defs>
</svg>
