<svg width="164" height="164" viewBox="0 0 164 164" fill="none" xmlns="http://www.w3.org/2000/svg">
<path d="M82.0002 137.76C51.1682 137.76 26.2402 112.832 26.2402 82C26.2402 51.168 51.1682 26.24 82.0002 26.24C112.832 26.24 137.76 51.168 137.76 82C137.76 112.832 112.832 137.76 82.0002 137.76ZM82.0002 32.8C54.7762 32.8 32.8002 54.776 32.8002 82C32.8002 109.224 54.7762 131.2 82.0002 131.2C109.224 131.2 131.2 109.224 131.2 82C131.2 54.776 109.224 32.8 82.0002 32.8Z" fill="white"/>
<path d="M65.6001 110.536V53.464L114.8 82L65.6001 110.536ZM72.1601 64.616V99.056L101.68 81.672L72.1601 64.616Z" fill="white"/>
</svg>
